<mxfile host="app.diagrams.net" modified="2024-06-14T16:24:00.957Z" agent="Mozilla/5.0 (Windows NT 10.0; Win64; x64) AppleWebKit/537.36 (KHTML, like Gecko) Chrome/125.0.0.0 Safari/537.36" etag="yptpH4CKYDrF6cl8FnIU" version="24.5.4" type="google">
  <diagram name="Page-1" id="ucax8BOHQeznoaBU-wPC">
    <mxGraphModel grid="0" page="1" gridSize="10" guides="1" tooltips="1" connect="1" arrows="1" fold="1" pageScale="1" pageWidth="850" pageHeight="1100" background="none" math="0" shadow="0">
      <root>
        <mxCell id="0" />
        <mxCell id="1" parent="0" />
        <mxCell id="tJ0-x3sZ8YB9Y-sq8sB4-1" value="SANPHAM" style="rounded=0;whiteSpace=wrap;html=1;" vertex="1" parent="1">
          <mxGeometry x="200" y="130" width="120" height="60" as="geometry" />
        </mxCell>
        <mxCell id="tJ0-x3sZ8YB9Y-sq8sB4-2" value="NCC" style="rounded=0;whiteSpace=wrap;html=1;" vertex="1" parent="1">
          <mxGeometry x="34" y="260" width="120" height="60" as="geometry" />
        </mxCell>
        <mxCell id="tJ0-x3sZ8YB9Y-sq8sB4-3" value="KHO" style="rounded=0;whiteSpace=wrap;html=1;" vertex="1" parent="1">
          <mxGeometry x="360" y="370" width="120" height="60" as="geometry" />
        </mxCell>
        <mxCell id="tJ0-x3sZ8YB9Y-sq8sB4-5" value="LOAISP" style="rounded=0;whiteSpace=wrap;html=1;" vertex="1" parent="1">
          <mxGeometry x="530" y="130" width="120" height="60" as="geometry" />
        </mxCell>
        <mxCell id="tJ0-x3sZ8YB9Y-sq8sB4-6" value="NHANVIEN" style="rounded=0;whiteSpace=wrap;html=1;" vertex="1" parent="1">
          <mxGeometry x="360" y="612" width="120" height="60" as="geometry" />
        </mxCell>
        <mxCell id="tJ0-x3sZ8YB9Y-sq8sB4-7" value="PHIEUNHAPKHO" style="rounded=0;whiteSpace=wrap;html=1;" vertex="1" parent="1">
          <mxGeometry x="34" y="612" width="120" height="60" as="geometry" />
        </mxCell>
        <mxCell id="tJ0-x3sZ8YB9Y-sq8sB4-9" value="PHIEUXUATKHO&amp;nbsp;" style="rounded=0;whiteSpace=wrap;html=1;" vertex="1" parent="1">
          <mxGeometry x="689" y="612" width="120" height="60" as="geometry" />
        </mxCell>
        <mxCell id="tJ0-x3sZ8YB9Y-sq8sB4-11" value="KHACHHANG" style="rounded=0;whiteSpace=wrap;html=1;" vertex="1" parent="1">
          <mxGeometry x="689" y="260" width="120" height="60" as="geometry" />
        </mxCell>
        <mxCell id="tJ0-x3sZ8YB9Y-sq8sB4-17" style="edgeStyle=orthogonalEdgeStyle;rounded=0;orthogonalLoop=1;jettySize=auto;html=1;exitX=1;exitY=0.5;exitDx=0;exitDy=0;entryX=0;entryY=0.5;entryDx=0;entryDy=0;" edge="1" parent="1" source="tJ0-x3sZ8YB9Y-sq8sB4-12" target="tJ0-x3sZ8YB9Y-sq8sB4-5">
          <mxGeometry relative="1" as="geometry" />
        </mxCell>
        <mxCell id="2bl9eF74mWpFbtgGWEVw-8" style="edgeStyle=orthogonalEdgeStyle;rounded=0;orthogonalLoop=1;jettySize=auto;html=1;exitX=0;exitY=0.5;exitDx=0;exitDy=0;entryX=1;entryY=0.5;entryDx=0;entryDy=0;" edge="1" parent="1" source="tJ0-x3sZ8YB9Y-sq8sB4-12" target="tJ0-x3sZ8YB9Y-sq8sB4-1">
          <mxGeometry relative="1" as="geometry" />
        </mxCell>
        <mxCell id="tJ0-x3sZ8YB9Y-sq8sB4-12" value="thuộc" style="rhombus;whiteSpace=wrap;html=1;" vertex="1" parent="1">
          <mxGeometry x="380" y="120" width="80" height="80" as="geometry" />
        </mxCell>
        <mxCell id="tJ0-x3sZ8YB9Y-sq8sB4-18" value="(1, 1)" style="text;html=1;align=center;verticalAlign=middle;whiteSpace=wrap;rounded=0;" vertex="1" parent="1">
          <mxGeometry x="140" y="130" width="60" height="30" as="geometry" />
        </mxCell>
        <mxCell id="tJ0-x3sZ8YB9Y-sq8sB4-19" value="(1, n)" style="text;html=1;align=center;verticalAlign=middle;whiteSpace=wrap;rounded=0;" vertex="1" parent="1">
          <mxGeometry x="200" y="190" width="60" height="30" as="geometry" />
        </mxCell>
        <mxCell id="tJ0-x3sZ8YB9Y-sq8sB4-22" style="edgeStyle=orthogonalEdgeStyle;rounded=0;orthogonalLoop=1;jettySize=auto;html=1;exitX=0.5;exitY=1;exitDx=0;exitDy=0;entryX=0.5;entryY=0;entryDx=0;entryDy=0;" edge="1" parent="1" source="tJ0-x3sZ8YB9Y-sq8sB4-20" target="tJ0-x3sZ8YB9Y-sq8sB4-2">
          <mxGeometry relative="1" as="geometry" />
        </mxCell>
        <mxCell id="2bl9eF74mWpFbtgGWEVw-5" style="edgeStyle=orthogonalEdgeStyle;rounded=0;orthogonalLoop=1;jettySize=auto;html=1;exitX=1;exitY=0.5;exitDx=0;exitDy=0;entryX=0;entryY=0.5;entryDx=0;entryDy=0;" edge="1" parent="1" source="tJ0-x3sZ8YB9Y-sq8sB4-20" target="tJ0-x3sZ8YB9Y-sq8sB4-1">
          <mxGeometry relative="1" as="geometry" />
        </mxCell>
        <mxCell id="tJ0-x3sZ8YB9Y-sq8sB4-20" value="cung cấp" style="rhombus;whiteSpace=wrap;html=1;" vertex="1" parent="1">
          <mxGeometry x="54" y="120" width="80" height="80" as="geometry" />
        </mxCell>
        <mxCell id="tJ0-x3sZ8YB9Y-sq8sB4-23" value="(1, 1)" style="text;html=1;align=center;verticalAlign=middle;whiteSpace=wrap;rounded=0;" vertex="1" parent="1">
          <mxGeometry x="320" y="130" width="60" height="30" as="geometry" />
        </mxCell>
        <mxCell id="tJ0-x3sZ8YB9Y-sq8sB4-25" value="(1, n)" style="text;html=1;align=center;verticalAlign=middle;whiteSpace=wrap;rounded=0;" vertex="1" parent="1">
          <mxGeometry x="34" y="230" width="60" height="30" as="geometry" />
        </mxCell>
        <mxCell id="2bl9eF74mWpFbtgGWEVw-6" style="edgeStyle=orthogonalEdgeStyle;rounded=0;orthogonalLoop=1;jettySize=auto;html=1;exitX=0;exitY=0.5;exitDx=0;exitDy=0;entryX=0.5;entryY=1;entryDx=0;entryDy=0;" edge="1" parent="1" source="tJ0-x3sZ8YB9Y-sq8sB4-27" target="tJ0-x3sZ8YB9Y-sq8sB4-1">
          <mxGeometry relative="1" as="geometry" />
        </mxCell>
        <mxCell id="2bl9eF74mWpFbtgGWEVw-7" style="edgeStyle=orthogonalEdgeStyle;rounded=0;orthogonalLoop=1;jettySize=auto;html=1;exitX=0.5;exitY=1;exitDx=0;exitDy=0;entryX=0.5;entryY=0;entryDx=0;entryDy=0;" edge="1" parent="1" source="tJ0-x3sZ8YB9Y-sq8sB4-27" target="tJ0-x3sZ8YB9Y-sq8sB4-3">
          <mxGeometry relative="1" as="geometry" />
        </mxCell>
        <mxCell id="tJ0-x3sZ8YB9Y-sq8sB4-27" value="lưu trữ" style="rhombus;whiteSpace=wrap;html=1;" vertex="1" parent="1">
          <mxGeometry x="380" y="240" width="80" height="80" as="geometry" />
        </mxCell>
        <mxCell id="tJ0-x3sZ8YB9Y-sq8sB4-30" value="(1, n)" style="text;html=1;align=center;verticalAlign=middle;whiteSpace=wrap;rounded=0;" vertex="1" parent="1">
          <mxGeometry x="470" y="130" width="60" height="30" as="geometry" />
        </mxCell>
        <mxCell id="tJ0-x3sZ8YB9Y-sq8sB4-31" value="(1, n)" style="text;html=1;align=center;verticalAlign=middle;whiteSpace=wrap;rounded=0;" vertex="1" parent="1">
          <mxGeometry x="360" y="340" width="60" height="30" as="geometry" />
        </mxCell>
        <mxCell id="tJ0-x3sZ8YB9Y-sq8sB4-35" value="(1, 1)" style="text;html=1;align=center;verticalAlign=middle;whiteSpace=wrap;rounded=0;" vertex="1" parent="1">
          <mxGeometry x="154" y="612" width="60" height="30" as="geometry" />
        </mxCell>
        <mxCell id="tJ0-x3sZ8YB9Y-sq8sB4-38" style="edgeStyle=orthogonalEdgeStyle;rounded=0;orthogonalLoop=1;jettySize=auto;html=1;exitX=0.5;exitY=0;exitDx=0;exitDy=0;entryX=0.5;entryY=1;entryDx=0;entryDy=0;" edge="1" parent="1" source="tJ0-x3sZ8YB9Y-sq8sB4-37" target="tJ0-x3sZ8YB9Y-sq8sB4-7">
          <mxGeometry relative="1" as="geometry" />
        </mxCell>
        <mxCell id="tJ0-x3sZ8YB9Y-sq8sB4-37" value="có" style="rhombus;whiteSpace=wrap;html=1;" vertex="1" parent="1">
          <mxGeometry x="54" y="732" width="80" height="80" as="geometry" />
        </mxCell>
        <mxCell id="tJ0-x3sZ8YB9Y-sq8sB4-40" value="(1, n)" style="text;html=1;align=center;verticalAlign=middle;whiteSpace=wrap;rounded=0;" vertex="1" parent="1">
          <mxGeometry x="34" y="672" width="60" height="30" as="geometry" />
        </mxCell>
        <mxCell id="tJ0-x3sZ8YB9Y-sq8sB4-45" style="edgeStyle=orthogonalEdgeStyle;rounded=0;orthogonalLoop=1;jettySize=auto;html=1;exitX=1;exitY=0.5;exitDx=0;exitDy=0;entryX=0;entryY=0.5;entryDx=0;entryDy=0;" edge="1" parent="1" source="tJ0-x3sZ8YB9Y-sq8sB4-42" target="tJ0-x3sZ8YB9Y-sq8sB4-6">
          <mxGeometry relative="1" as="geometry" />
        </mxCell>
        <mxCell id="2bl9eF74mWpFbtgGWEVw-2" style="edgeStyle=orthogonalEdgeStyle;rounded=0;orthogonalLoop=1;jettySize=auto;html=1;exitX=0;exitY=0.5;exitDx=0;exitDy=0;entryX=1;entryY=0.5;entryDx=0;entryDy=0;" edge="1" parent="1" source="tJ0-x3sZ8YB9Y-sq8sB4-42" target="tJ0-x3sZ8YB9Y-sq8sB4-7">
          <mxGeometry relative="1" as="geometry" />
        </mxCell>
        <mxCell id="tJ0-x3sZ8YB9Y-sq8sB4-42" value="lập" style="rhombus;whiteSpace=wrap;html=1;" vertex="1" parent="1">
          <mxGeometry x="220" y="602" width="80" height="80" as="geometry" />
        </mxCell>
        <mxCell id="tJ0-x3sZ8YB9Y-sq8sB4-47" value="(1, n)" style="text;html=1;align=center;verticalAlign=middle;whiteSpace=wrap;rounded=0;" vertex="1" parent="1">
          <mxGeometry x="304" y="612" width="60" height="30" as="geometry" />
        </mxCell>
        <mxCell id="tJ0-x3sZ8YB9Y-sq8sB4-55" style="edgeStyle=orthogonalEdgeStyle;rounded=0;orthogonalLoop=1;jettySize=auto;html=1;exitX=0.5;exitY=0;exitDx=0;exitDy=0;entryX=0.5;entryY=1;entryDx=0;entryDy=0;" edge="1" parent="1" source="tJ0-x3sZ8YB9Y-sq8sB4-53" target="tJ0-x3sZ8YB9Y-sq8sB4-9">
          <mxGeometry relative="1" as="geometry" />
        </mxCell>
        <mxCell id="tJ0-x3sZ8YB9Y-sq8sB4-53" value="có" style="rhombus;whiteSpace=wrap;html=1;" vertex="1" parent="1">
          <mxGeometry x="709" y="732" width="80" height="80" as="geometry" />
        </mxCell>
        <mxCell id="tJ0-x3sZ8YB9Y-sq8sB4-56" value="(1, n)" style="text;html=1;align=center;verticalAlign=middle;whiteSpace=wrap;rounded=0;" vertex="1" parent="1">
          <mxGeometry x="689" y="672" width="60" height="30" as="geometry" />
        </mxCell>
        <mxCell id="tJ0-x3sZ8YB9Y-sq8sB4-59" value="" style="edgeStyle=orthogonalEdgeStyle;rounded=0;orthogonalLoop=1;jettySize=auto;html=1;" edge="1" parent="1" source="tJ0-x3sZ8YB9Y-sq8sB4-58" target="tJ0-x3sZ8YB9Y-sq8sB4-6">
          <mxGeometry relative="1" as="geometry" />
        </mxCell>
        <mxCell id="tJ0-x3sZ8YB9Y-sq8sB4-60" style="edgeStyle=orthogonalEdgeStyle;rounded=0;orthogonalLoop=1;jettySize=auto;html=1;exitX=1;exitY=0.5;exitDx=0;exitDy=0;entryX=0;entryY=0.5;entryDx=0;entryDy=0;" edge="1" parent="1" source="tJ0-x3sZ8YB9Y-sq8sB4-58" target="tJ0-x3sZ8YB9Y-sq8sB4-9">
          <mxGeometry relative="1" as="geometry" />
        </mxCell>
        <mxCell id="tJ0-x3sZ8YB9Y-sq8sB4-58" value="lập" style="rhombus;whiteSpace=wrap;html=1;" vertex="1" parent="1">
          <mxGeometry x="549" y="602" width="80" height="80" as="geometry" />
        </mxCell>
        <mxCell id="tJ0-x3sZ8YB9Y-sq8sB4-61" value="(1, n)" style="text;html=1;align=center;verticalAlign=middle;whiteSpace=wrap;rounded=0;" vertex="1" parent="1">
          <mxGeometry x="484" y="612" width="60" height="30" as="geometry" />
        </mxCell>
        <mxCell id="tJ0-x3sZ8YB9Y-sq8sB4-62" value="(1, 1)" style="text;html=1;align=center;verticalAlign=middle;whiteSpace=wrap;rounded=0;" vertex="1" parent="1">
          <mxGeometry x="629" y="612" width="60" height="30" as="geometry" />
        </mxCell>
        <mxCell id="tJ0-x3sZ8YB9Y-sq8sB4-66" style="edgeStyle=orthogonalEdgeStyle;rounded=0;orthogonalLoop=1;jettySize=auto;html=1;exitX=0.5;exitY=0;exitDx=0;exitDy=0;entryX=0.5;entryY=1;entryDx=0;entryDy=0;" edge="1" parent="1" source="tJ0-x3sZ8YB9Y-sq8sB4-63" target="tJ0-x3sZ8YB9Y-sq8sB4-11">
          <mxGeometry relative="1" as="geometry">
            <mxPoint x="749.3333333333335" y="360" as="targetPoint" />
          </mxGeometry>
        </mxCell>
        <mxCell id="tJ0-x3sZ8YB9Y-sq8sB4-68" style="edgeStyle=orthogonalEdgeStyle;rounded=0;orthogonalLoop=1;jettySize=auto;html=1;exitX=0.5;exitY=1;exitDx=0;exitDy=0;entryX=0.5;entryY=0;entryDx=0;entryDy=0;" edge="1" parent="1" source="tJ0-x3sZ8YB9Y-sq8sB4-63" target="tJ0-x3sZ8YB9Y-sq8sB4-9">
          <mxGeometry relative="1" as="geometry" />
        </mxCell>
        <mxCell id="tJ0-x3sZ8YB9Y-sq8sB4-63" value="bán" style="rhombus;whiteSpace=wrap;html=1;" vertex="1" parent="1">
          <mxGeometry x="709" y="430" width="80" height="80" as="geometry" />
        </mxCell>
        <mxCell id="tJ0-x3sZ8YB9Y-sq8sB4-69" value="(1, 1)" style="text;html=1;align=center;verticalAlign=middle;whiteSpace=wrap;rounded=0;" vertex="1" parent="1">
          <mxGeometry x="689" y="582" width="60" height="30" as="geometry" />
        </mxCell>
        <mxCell id="tJ0-x3sZ8YB9Y-sq8sB4-70" value="(1, n)" style="text;html=1;align=center;verticalAlign=middle;whiteSpace=wrap;rounded=0;" vertex="1" parent="1">
          <mxGeometry x="689" y="320" width="60" height="30" as="geometry" />
        </mxCell>
        <mxCell id="2bl9eF74mWpFbtgGWEVw-12" style="edgeStyle=orthogonalEdgeStyle;rounded=0;orthogonalLoop=1;jettySize=auto;html=1;exitX=0.5;exitY=0;exitDx=0;exitDy=0;entryX=0.5;entryY=1;entryDx=0;entryDy=0;" edge="1" parent="1" source="2bl9eF74mWpFbtgGWEVw-11" target="tJ0-x3sZ8YB9Y-sq8sB4-3">
          <mxGeometry relative="1" as="geometry" />
        </mxCell>
        <mxCell id="2bl9eF74mWpFbtgGWEVw-13" style="edgeStyle=orthogonalEdgeStyle;rounded=0;orthogonalLoop=1;jettySize=auto;html=1;exitX=0.5;exitY=1;exitDx=0;exitDy=0;entryX=0.5;entryY=0;entryDx=0;entryDy=0;" edge="1" parent="1" source="2bl9eF74mWpFbtgGWEVw-11" target="tJ0-x3sZ8YB9Y-sq8sB4-6">
          <mxGeometry relative="1" as="geometry" />
        </mxCell>
        <mxCell id="2bl9eF74mWpFbtgGWEVw-11" value="quản lý" style="rhombus;whiteSpace=wrap;html=1;" vertex="1" parent="1">
          <mxGeometry x="380" y="480" width="80" height="80" as="geometry" />
        </mxCell>
        <mxCell id="2bl9eF74mWpFbtgGWEVw-15" value="(1, 1)" style="text;html=1;align=center;verticalAlign=middle;whiteSpace=wrap;rounded=0;" vertex="1" parent="1">
          <mxGeometry x="360" y="430" width="60" height="30" as="geometry" />
        </mxCell>
        <mxCell id="2bl9eF74mWpFbtgGWEVw-16" value="(1, 1)" style="text;html=1;align=center;verticalAlign=middle;whiteSpace=wrap;rounded=0;" vertex="1" parent="1">
          <mxGeometry x="360" y="582" width="60" height="30" as="geometry" />
        </mxCell>
        <mxCell id="hHKbU3joUFBxq0-ZbL7p-4" value="" style="endArrow=classic;html=1;rounded=0;exitX=0;exitY=0.5;exitDx=0;exitDy=0;entryX=0.5;entryY=0;entryDx=0;entryDy=0;" edge="1" parent="1">
          <mxGeometry width="50" height="50" relative="1" as="geometry">
            <mxPoint x="53" y="772.0000000000002" as="sourcePoint" />
            <mxPoint x="259" y="130.0000000000001" as="targetPoint" />
            <Array as="points">
              <mxPoint x="10" y="772" />
              <mxPoint x="10" y="80" />
              <mxPoint x="259" y="80" />
            </Array>
          </mxGeometry>
        </mxCell>
        <mxCell id="hHKbU3joUFBxq0-ZbL7p-5" value="(1, n)" style="text;html=1;align=center;verticalAlign=middle;whiteSpace=wrap;rounded=0;" vertex="1" parent="1">
          <mxGeometry x="200" y="100" width="60" height="30" as="geometry" />
        </mxCell>
        <mxCell id="hHKbU3joUFBxq0-ZbL7p-7" value="" style="endArrow=classic;html=1;rounded=0;exitX=1;exitY=0.5;exitDx=0;exitDy=0;entryX=0.75;entryY=0;entryDx=0;entryDy=0;" edge="1" parent="1" source="tJ0-x3sZ8YB9Y-sq8sB4-53" target="tJ0-x3sZ8YB9Y-sq8sB4-1">
          <mxGeometry width="50" height="50" relative="1" as="geometry">
            <mxPoint x="700" y="750" as="sourcePoint" />
            <mxPoint x="750" y="700" as="targetPoint" />
            <Array as="points">
              <mxPoint x="840" y="772" />
              <mxPoint x="840" y="80" />
              <mxPoint x="290" y="80" />
            </Array>
          </mxGeometry>
        </mxCell>
        <mxCell id="hHKbU3joUFBxq0-ZbL7p-8" value="(1, n)" style="text;html=1;align=center;verticalAlign=middle;whiteSpace=wrap;rounded=0;" vertex="1" parent="1">
          <mxGeometry x="280" y="100" width="60" height="30" as="geometry" />
        </mxCell>
        <mxCell id="B2J_ZkSLcx1blWeIRtVb-1" value="SoLuong" style="ellipse;whiteSpace=wrap;html=1;" vertex="1" parent="1">
          <mxGeometry x="500" y="260" width="70" height="40" as="geometry" />
        </mxCell>
        <mxCell id="B2J_ZkSLcx1blWeIRtVb-2" value="" style="endArrow=none;html=1;rounded=0;entryX=0;entryY=0.5;entryDx=0;entryDy=0;exitX=1;exitY=0.5;exitDx=0;exitDy=0;" edge="1" parent="1" source="tJ0-x3sZ8YB9Y-sq8sB4-27" target="B2J_ZkSLcx1blWeIRtVb-1">
          <mxGeometry width="50" height="50" relative="1" as="geometry">
            <mxPoint x="400" y="320" as="sourcePoint" />
            <mxPoint x="450" y="270" as="targetPoint" />
          </mxGeometry>
        </mxCell>
        <mxCell id="B2J_ZkSLcx1blWeIRtVb-3" value="SoLuong" style="ellipse;whiteSpace=wrap;html=1;" vertex="1" parent="1">
          <mxGeometry x="180" y="752" width="70" height="40" as="geometry" />
        </mxCell>
        <mxCell id="B2J_ZkSLcx1blWeIRtVb-5" value="" style="endArrow=none;html=1;rounded=0;exitX=1;exitY=0.5;exitDx=0;exitDy=0;" edge="1" parent="1" source="tJ0-x3sZ8YB9Y-sq8sB4-37">
          <mxGeometry width="50" height="50" relative="1" as="geometry">
            <mxPoint x="400" y="820" as="sourcePoint" />
            <mxPoint x="180" y="772" as="targetPoint" />
          </mxGeometry>
        </mxCell>
        <mxCell id="B2J_ZkSLcx1blWeIRtVb-7" value="SoLuong" style="ellipse;whiteSpace=wrap;html=1;" vertex="1" parent="1">
          <mxGeometry x="590" y="752" width="70" height="40" as="geometry" />
        </mxCell>
        <mxCell id="B2J_ZkSLcx1blWeIRtVb-9" value="" style="endArrow=none;html=1;rounded=0;entryX=0;entryY=0.5;entryDx=0;entryDy=0;exitX=1;exitY=0.5;exitDx=0;exitDy=0;" edge="1" parent="1" source="B2J_ZkSLcx1blWeIRtVb-7" target="tJ0-x3sZ8YB9Y-sq8sB4-53">
          <mxGeometry width="50" height="50" relative="1" as="geometry">
            <mxPoint x="660" y="780" as="sourcePoint" />
            <mxPoint x="450" y="770" as="targetPoint" />
          </mxGeometry>
        </mxCell>
        <mxCell id="B2J_ZkSLcx1blWeIRtVb-11" value="CT_PNK" style="text;html=1;align=center;verticalAlign=middle;whiteSpace=wrap;rounded=0;" vertex="1" parent="1">
          <mxGeometry x="10" y="782" width="60" height="30" as="geometry" />
        </mxCell>
        <mxCell id="B2J_ZkSLcx1blWeIRtVb-12" value="CT_PXK" style="text;html=1;align=center;verticalAlign=middle;whiteSpace=wrap;rounded=0;" vertex="1" parent="1">
          <mxGeometry x="770" y="782" width="60" height="30" as="geometry" />
        </mxCell>
        <mxCell id="B2J_ZkSLcx1blWeIRtVb-13" value="LUUTRU" style="text;html=1;align=center;verticalAlign=middle;whiteSpace=wrap;rounded=0;" vertex="1" parent="1">
          <mxGeometry x="350" y="230" width="60" height="30" as="geometry" />
        </mxCell>
      </root>
    </mxGraphModel>
  </diagram>
</mxfile>
